SplineFontDB: 3.2
FontName: AnalysisSans
FullName: Analysis Sans
FamilyName: Analysis Sans
Weight: Regular
Copyright: Copyright (c) 2024, Bastien
UComments: "2024-9-12: Created with FontForge (http://fontforge.org)"
Version: 001.000
ItalicAngle: 0
UnderlinePosition: -102
UnderlineWidth: 51
Ascent: 800
Descent: 224
InvalidEm: 0
LayerCount: 2
Layer: 0 0 "Arri+AOgA-re" 1
Layer: 1 0 "Avant" 0
XUID: [1021 575 -248357885 15362797]
StyleMap: 0x0040
FSType: 0
OS2Version: 0
OS2_WeightWidthSlopeOnly: 0
OS2_UseTypoMetrics: 1
CreationTime: 1726144911
ModificationTime: 1735138692
PfmFamily: 33
TTFWeight: 400
TTFWidth: 5
LineGap: 192
VLineGap: 0
OS2TypoAscent: 800
OS2TypoAOffset: 0
OS2TypoDescent: -224
OS2TypoDOffset: 0
OS2TypoLinegap: 192
OS2WinAscent: 800
OS2WinAOffset: 0
OS2WinDescent: 224
OS2WinDOffset: 0
HheadAscent: 800
HheadAOffset: 0
HheadDescent: 224
HheadDOffset: 0
OS2FamilyClass: 2049
OS2Vendor: 'PfEd'
Lookup: 258 0 0 "KERN Latin" { "KERN Basic Latin" [153,0,2] } ['kern' ('DFLT' <'dflt' > 'latn' <'dflt' > ) ]
MarkAttachClasses: 1
DEI: 91125
KernClass2: 12 10 "KERN Basic Latin"
 58 A Agrave Aacute Acircumflex Atilde Adieresis Aring uni01CD
 1 R
 1 T
 1 V
 50 a agrave aacute acircumflex atilde adieresis aring
 112 c e o ccedilla egrave eacute ecircumflex edieresis ograve oacute ocircumflex otilde odieresis cacute ccircumflex
 1 f
 1 r
 20 v y yacute ydieresis
 1 E
 1 t
 50 A Agrave Aacute Acircumflex Atilde Adieresis Aring
 29 C Ccedilla Cacute Ccircumflex
 1 T
 1 V
 112 c e o ccedilla egrave eacute ecircumflex edieresis ograve oacute ocircumflex otilde odieresis cacute ccircumflex
 1 f
 1 g
 1 v
 1 a

StartChar: a
Encoding: 97 97 0
Width: 515
VWidth: 1000
Flags: HW
HStem: -8 60<137.824 304.241> 0 21G<374.897 435> 240 60<139.066 363> 455 60<151.375 319.584>
VStem: 27 72<87.8779 204.407> 363 72<111.961 240 300 409.953> 379 56<0 34.944>
AnchorPoint: "Ring" 253 670 basechar 0
AnchorPoint: "AccentCenter" 249 670 basechar 0
LayerCount: 2
Fore
SplineSet
363 300 m 4xbc
 363 325 l 5
 363 414 316 455 241 455 c 0
 185 455 136 434 105 393 c 1
 52 428 l 1
 99 481 155 515 237 515 c 0
 349 515 435 460 435 321 c 5xbc
 435 274 l 6
 435 0 l 5
 379 0 l 5x7a
 363 78 l 5
 336 22 287 -8 222 -8 c 0
 96 -8 27 51 27 144 c 0
 27 247 104 300 282 300 c 0
 363 300 l 4xbc
99 144 m 0
 99 82 153 52 226 52 c 1
 311 52 363 114 363 186 c 5
 363 240 l 4
 284 240 l 0
 159 240 99 221 99 144 c 0
EndSplineSet
EndChar

StartChar: e
Encoding: 101 101 1
Width: 536
Flags: W
HStem: -8 56<192.567 365.802> 225 60<116 416> 459 56<186.899 345.377>
VStem: 44 72<131.499 225 285 379.268> 416 72<285 380.264>
AnchorPoint: "AccentCenter" 272 670 basechar 0
LayerCount: 2
Fore
SplineSet
272 459 m 1
 161 459 116 375 116 285 c 1
 416 285 l 1
 416 389 357 459 272 459 c 1
272 515 m 0
 400 515 488 418 488 266 c 1
 460 225 l 1
 116 225 l 1
 116 122 174 48 276 48 c 0
 344 48 388 76 420 119 c 1
 468 80 l 1
 432 28 370 -8 278 -8 c 0
 142 -8 44 88 44 255 c 0
 44 412 130 515 272 515 c 0
EndSplineSet
EndChar

StartChar: g
Encoding: 103 103 2
Width: 540
Flags: W
HStem: -192 55<143.875 382.194> 12 60<140 207 211 393.846> 24 48<114 205> 448 59<166.8 324.365> 456 59<421.237 509>
VStem: 33 77<-105.263 -10.3099> 67 65<84.6465 155.204 272.137 413.35> 359 72<271.769 413.35> 417 72<-105.923 -9.82704>
LayerCount: 2
Fore
SplineSet
369 461 m 1x88
 409 499 443 515 509 515 c 1
 509 456 l 1
 462 456 428 449 407 419 c 1
 369 461 l 1x88
61 350 m 0
 61 449 133 507 243 507 c 0
 356 507 431 449 431 350 c 0x91
 431 244 354 184 241 184 c 0
 122 184 61 254 61 350 c 0
132 346 m 0x93
 132 272 168 239 247 239 c 0
 319 239 359 272 359 346 c 0
 359 410 319 448 247 448 c 0
 168 448 132 410 132 346 c 0x93
333 72 m 1xc480
 428 72 489 15 489 -60 c 0
 489 -157 393 -192 261 -192 c 0
 96 -192 33 -141 33 -58 c 1
 33 13 103 72 191 72 c 1
 333 72 l 1xc480
333 12 m 1
 207 12 l 1
 140 12 110 -20 110 -58 c 1
 110 -107 152 -137 263 -137 c 0
 357 -137 417 -113 417 -64 c 0
 417 -12 378 12 333 12 c 1
265 185 m 1
 175 178 132 156 132 116 c 0
 132 86 170 72 211 72 c 0xc2
 205 24 l 0
 114 24 67 63 67 115 c 0xa2
 67 183 149 213 245 224 c 1
 265 185 l 1
EndSplineSet
EndChar

StartChar: i
Encoding: 105 105 3
Width: 230
Flags: W
HStem: 0 21G<78 150> 487 20G<78 150> 635 102<73.4557 156.544>
VStem: 64 102<644.456 727.544> 78 72<0 507>
LayerCount: 2
Fore
SplineSet
78 0 m 1xe8
 78 507 l 1
 150 507 l 1
 150 0 l 1
 78 0 l 1xe8
64 686 m 0xf0
 64 714 87 737 115 737 c 0
 143 737 166 714 166 686 c 0
 166 658 143 635 115 635 c 0
 87 635 64 658 64 686 c 0xf0
EndSplineSet
EndChar

StartChar: l
Encoding: 108 108 4
Width: 232
Flags: HW
HStem: 0 21G<80 152> 687 20G<80 152>
VStem: 80 72<0 707>
LayerCount: 2
Fore
SplineSet
80 0 m 1
 80 707 l 1
 152 707 l 1
 152 0 l 1
 80 0 l 1
EndSplineSet
EndChar

StartChar: m
Encoding: 109 109 5
Width: 800
Flags: WO
HStem: 0 21G<72 144 362 434 656 728> 455 60<201.359 331.431 482.884 620.097> 487 20G<72 131.678>
VStem: 72 72<0 346 420 458.976> 72 56<468.024 507> 362 72<0 420> 656 72<0 418.94>
LayerCount: 2
Fore
SplineSet
416 429 m 1xc6
 431 465 492 515 571 515 c 1
 671 515 728 449 728 346 c 1
 728 0 l 1
 656 0 l 1
 656 345 l 1
 656 420 611 455 557 455 c 1
 480 455 446 408 434 382 c 1
 416 429 l 1xc6
138 419 m 1
 149 451 184 515 283 515 c 1
 352 515 402 475 422 420 c 1
 434 420 l 1
 434 0 l 1
 362 0 l 1
 362 360 l 1
 362 408 330 455 276 455 c 1
 190 455 151 387 143 346 c 1
 138 419 l 1
72 507 m 1xae
 128 507 l 1xae
 144 420 l 1
 144 0 l 1
 72 0 l 1xb6
 72 507 l 1xae
EndSplineSet
EndChar

StartChar: z
Encoding: 122 122 7
Width: 552
Flags: W
HStem: 0 64<144 460> 443 64<60 460>
LayerCount: 2
Fore
SplineSet
376 443 m 1
 460 443 l 1
 144 64 l 5
 60 64 l 5
 376 443 l 1
60 64 m 5
 460 64 l 1
 460 0 l 1
 60 0 l 5
 60 64 l 5
60 507 m 5
 460 507 l 1
 460 443 l 1
 60 443 l 5
 60 507 l 5
EndSplineSet
EndChar

StartChar: n
Encoding: 110 110 8
Width: 552
Flags: HW
HStem: 0 21G<72 144 408 480> 455 60<210.399 364.031> 487 20G<72 132.706>
VStem: 72 72<0 403 439 469.464> 72 56<476.536 507> 408 72<0 406.452>
AnchorPoint: "AccentCenter" 270 670 basechar 0
LayerCount: 2
Fore
SplineSet
72 507 m 5xac
 128 507 l 5xac
 144 439 l 5
 144 0 l 5
 72 0 l 5xb4
 72 507 l 5xac
126 403 m 5
 138 454 209 515 299 515 c 4
 426 515 480 424 480 318 c 5
 480 0 l 5
 408 0 l 5
 408 316 l 6
 408 404 371 455 290 455 c 4
 192 455 144 380 144 306 c 5xd4
 126 403 l 5
EndSplineSet
EndChar

StartChar: s
Encoding: 115 115 9
Width: 465
Flags: W
HStem: -8 58<121.971 306.789> 455 60<141.443 316.865>
VStem: 43 72<328.902 428.693> 334 72<76.7912 178.987>
LayerCount: 2
Fore
SplineSet
225 515 m 5
 306 515 346 490 393 453 c 5
 353 404 l 5
 315 440 285 455 227 455 c 5
 163 455 115 432 115 382 c 5
 115 340 128 317 248 279 c 4
 334 252 406 216 406 132 c 5
 406 38 315 -8 223 -8 c 5
 125 -8 74 14 16 74 c 5
 67 120 l 5
 98 80 140 50 221 50 c 5
 296 50 334 78 334 133 c 5
 334 184 285 202 190 233 c 4
 86 267 43 310 43 378 c 5
 43 452 104 515 225 515 c 5
EndSplineSet
EndChar

StartChar: q
Encoding: 113 113 10
Width: 562
Flags: HW
HStem: -8 60<202.871 363.285> 455 60<189.332 359.282> 487 20G<428.286 490>
VStem: 48 72<144.406 377.687> 418 72<-192 411 451 476.088> 434 56<481.912 507>
LayerCount: 2
Fore
SplineSet
442 96 m 1xd8
 426 56 386 -8 276 -8 c 1
 152 -8 48 85 48 252 c 1
 48 439 149 515 270 515 c 1
 382 515 426 457 446 411 c 1
 418 323 l 1
 418 399 362 455 276 455 c 1
 177 455 120 398 120 255 c 1
 120 125 188 52 280 52 c 1
 364 52 418 100 418 178 c 1
 442 96 l 1xd8
490 -192 m 1
 418 -192 l 1
 418 451 l 1xb8
 434 507 l 1
 490 507 l 1xb4
 490 -192 l 1
EndSplineSet
EndChar

StartChar: f
Encoding: 102 102 11
Width: 375
Flags: W
HStem: 0 21G<102 174> 447 60<58.096 342> 447 44<4 47.904> 658 57<219.104 363.444>
VStem: 102 72<0 608.7>
LayerCount: 2
Fore
SplineSet
288 658 m 1x98
 207 658 174 596 174 515 c 1
 174 0 l 25
 102 0 l 25
 102 508 l 1
 102 637 168 715 284 715 c 1
 315 715 343 713 378 701 c 1
 358 648 l 1
 336 656 312 658 288 658 c 1x98
4 491 m 1xb8
 102 507 l 1
 342 507 l 1
 342 447 l 1
 232 447 l 1xd8
 4 447 l 1
 4 491 l 1xb8
EndSplineSet
EndChar

StartChar: o
Encoding: 111 111 12
Width: 572
Flags: W
HStem: -8 60<204.209 367.226> 455 60<204.209 364.541>
VStem: 48 72<142.272 360.836> 452 72<147.605 358.681>
AnchorPoint: "AccentCenter" 284 670 basechar 0
LayerCount: 2
Fore
SplineSet
120 252 m 0
 120 118 194 52 284 52 c 0
 374 52 452 118 452 252 c 0
 452 386 374 455 284 455 c 0
 194 455 120 386 120 252 c 0
48 254 m 0
 48 436 161 515 284 515 c 0
 407 515 524 436 524 254 c 0
 524 72 407 -8 284 -8 c 0
 161 -8 48 72 48 254 c 0
EndSplineSet
EndChar

StartChar: c
Encoding: 99 99 13
Width: 510
Flags: W
HStem: -8 60<202.202 374.972> 455 60<200.232 378.852>
VStem: 48 72<141.092 366.651>
AnchorPoint: "CedillaCenter" 262 -8 basechar 0
AnchorPoint: "AccentCenter" 286 670 basechar 0
LayerCount: 2
Fore
SplineSet
286 515 m 1
 381 515 437 480 484 420 c 1
 437 381 l 1
 401 427 358 455 288 455 c 1
 187 455 120 388 120 249 c 1
 120 119 190 52 284 52 c 1
 353 52 401 78 441 135 c 1
 494 97 l 1
 447 38 392 -8 282 -8 c 1
 144 -8 48 102 48 248 c 1
 48 415 157 515 286 515 c 1
EndSplineSet
EndChar

StartChar: x
Encoding: 120 120 14
Width: 600
Flags: W
HStem: 0 21G<48 150.581 417.419 520> 487 20G<48 150.653 417.347 520>
LayerCount: 2
Fore
SplineSet
48 507 m 5
 136 507 l 5
 284 305 l 5
 432 507 l 5
 520 507 l 5
 328 254 l 5
 520 0 l 5
 432 0 l 5
 284 203 l 5
 136 0 l 5
 48 0 l 5
 240 254 l 5
 48 507 l 5
EndSplineSet
EndChar

StartChar: p
Encoding: 112 112 15
Width: 562
Flags: HW
HStem: -8 60<198.462 363.44> 455 60<203.428 371.807>
VStem: 72 72<451 476.088> 72 56<481.912 507> 442 72<139.904 373.18>
LayerCount: 2
Fore
SplineSet
118 96 m 1xe8
 134 56 176 -8 286 -8 c 1
 410 -8 514 85 514 252 c 1
 514 439 411 515 290 515 c 1
 178 515 134 457 114 411 c 1
 144 323 l 1
 144 399 200 455 286 455 c 1
 385 455 442 394 442 251 c 1
 442 121 374 52 282 52 c 1
 198 52 144 100 144 178 c 1
 118 96 l 1xe8
72 -192 m 1xd8
 144 -192 l 1
 144 451 l 1xe8
 128 507 l 1
 72 507 l 1
 72 -192 l 1xd8
EndSplineSet
EndChar

StartChar: h
Encoding: 104 104 16
Width: 540
Flags: HW
HStem: 0 21G<80 152 404 476> 455 60<205.749 360.031> 687 20G<80.9717 152>
VStem: 80 72<0 707> 404 72<0 406.452>
LayerCount: 2
Fore
SplineSet
81 707 m 1
 152 707 l 1
 152 0 l 1
 80 0 l 1
 81 707 l 1
136 413 m 1
 145 448 189 515 295 515 c 0
 422 515 476 424 476 318 c 1
 476 0 l 1
 404 0 l 1
 404 316 l 2
 404 404 367 455 286 455 c 0
 192 455 152 392 152 322 c 1
 136 413 l 1
EndSplineSet
EndChar

StartChar: b
Encoding: 98 98 17
Width: 570
Flags: HW
HStem: -8 60<211.428 378.187> 0 21G<80 141.714> 455 60<209.281 374.69> 687 20G<80 152>
VStem: 80 72<30.912 56 96 707> 80 56<0 25.088> 450 72<135.438 371.924>
LayerCount: 2
Fore
SplineSet
126 411 m 1xba
 142 451 188 515 298 515 c 1
 422 515 522 430 522 263 c 1
 522 76 419 -8 298 -8 c 1
 186 -8 142 50 122 96 c 1
 152 184 l 1
 152 108 208 52 294 52 c 1
 393 52 450 117 450 260 c 1
 450 390 386 455 294 455 c 1
 210 455 152 407 152 329 c 1
 126 411 l 1xba
80 707 m 1
 152 707 l 1
 152 56 l 1x7a
 136 0 l 1
 80 0 l 1x76
 80 707 l 1
EndSplineSet
EndChar

StartChar: d
Encoding: 100 100 18
Width: 570
Flags: HW
HStem: -8 60<193.916 358.072> 0 21G<428.286 490> 455 60<195.31 360.593> 687 20G<418 490>
VStem: 48 72<135.438 371.924> 418 72<30.912 56 96 707> 434 56<0 25.088>
LayerCount: 2
Fore
SplineSet
443 411 m 1xbc
 418 329 l 1
 418 407 360 455 276 455 c 1
 184 455 120 390 120 260 c 1
 120 117 177 52 276 52 c 1
 362 52 418 108 418 184 c 1
 447 96 l 1
 427 50 383 -8 271 -8 c 1
 150 -8 48 76 48 263 c 1
 48 430 148 515 272 515 c 1
 382 515 427 451 443 411 c 1xbc
490 707 m 1
 490 0 l 1
 434 0 l 1x7a
 418 56 l 1
 418 707 l 1
 490 707 l 1
EndSplineSet
EndChar

StartChar: j
Encoding: 106 106 19
Width: 210
Flags: W
HStem: -192 60<-100.699 8.11116> 487 20G<65 137> 635 102<65.8774 142.544>
VStem: 50 102<644.456 727.544> 65 72<-67.4551 507>
LayerCount: 2
Fore
SplineSet
50 686 m 0xf0
 50 714 73 737 101 737 c 0
 129 737 152 714 152 686 c 0
 152 658 129 635 101 635 c 0
 73 635 50 658 50 686 c 0xf0
65 44 m 1xe8
 65 507 l 1
 137 507 l 1
 137 44 l 1
 137 -84 73 -192 -62 -192 c 1
 -80 -192 -101 -187 -115 -178 c 1
 -96 -127 l 1
 -90 -131 -75 -132 -63 -132 c 1
 22 -132 65 -70 65 44 c 1xe8
EndSplineSet
EndChar

StartChar: k
Encoding: 107 107 20
Width: 506
Flags: HW
HStem: 0 21G<80 152 370.569 476> 487 20G<347.299 463> 687 20G<80 152>
VStem: 80 72<0 176 246 707>
LayerCount: 2
Fore
SplineSet
236 270 m 5
 284 239 l 1
 476 0 l 1
 386 0 l 17
 180 267 l 1
 236 270 l 5
134 246 m 1
 365 507 l 1
 463 507 l 1
 150 176 l 1
 134 246 l 1
80 707 m 1
 152 707 l 1
 152 0 l 1
 80 0 l 1
 80 707 l 1
EndSplineSet
EndChar

StartChar: r
Encoding: 114 114 21
Width: 410
Flags: W
HStem: 0 21G<68 140> 452 63<213.878 361.737> 487 20G<68 126.712>
VStem: 68 72<0 352 389 441.864> 68 56<454.136 507>
LayerCount: 2
Fore
SplineSet
297 515 m 1xd0
 327 515 348 511 372 503 c 1
 359 445 l 1
 341 450 322 452 301 452 c 1
 181 452 140 364 140 252 c 1
 116 352 l 1
 126 439 173 515 297 515 c 1xd0
68 507 m 1xa8
 124 507 l 1xa8
 140 389 l 1
 140 0 l 1
 68 0 l 1xb0
 68 507 l 1xa8
EndSplineSet
EndChar

StartChar: exclam
Encoding: 33 33 22
Width: 284
Flags: W
HStem: -8 118<87.3696 180.63>
VStem: 75 118<3.89313 98.1069> 90 88<290.104 739> 98 72<238 686.896>
LayerCount: 2
Fore
SplineSet
90 739 m 1xa0
 178 739 l 5xa0
 170 238 l 1
 98 238 l 1x90
 90 739 l 1xa0
75 51 m 0xc0
 75 83 98 110 134 110 c 0
 170 110 193 83 193 51 c 0
 193 19 170 -8 134 -8 c 0
 98 -8 75 19 75 51 c 0xc0
EndSplineSet
Validated: 1
EndChar

StartChar: quotedbl
Encoding: 34 34 23
Width: 576
Flags: W
HStem: 498 51<97.3457 117.322 321.346 341.322> 682 118<128.37 179.976 352.37 403.976>
VStem: 200 34<709 732.786> 424 34<709 732.786>
LayerCount: 2
Fore
SplineSet
399 800 m 5
 457 800 485 754 485 701 c 5
 485 602 393 516 325 498 c 5
 299 549 l 5
 364 569 424 642 424 706 c 5
 405 777 l 5
 399 800 l 5
340 741 m 4
 340 773 363 800 399 800 c 4
 435 800 458 773 458 741 c 4
 458 709 435 682 399 682 c 4
 363 682 340 709 340 741 c 4
175 800 m 5
 233 800 261 754 261 701 c 5
 261 602 169 516 101 498 c 5
 75 549 l 5
 140 569 200 642 200 706 c 5
 181 777 l 5
 175 800 l 5
116 741 m 4
 116 773 139 800 175 800 c 4
 211 800 234 773 234 741 c 4
 234 709 211 682 175 682 c 4
 139 682 116 709 116 741 c 4
EndSplineSet
Validated: 5
EndChar

StartChar: numbersign
Encoding: 35 35 24
Width: 686
Flags: W
HStem: 0 21G<91 172.629 304 385.629> 204 60<75 595> 447 60<75 595> 687 20G<284.371 366 497.371 579>
LayerCount: 2
Fore
SplineSet
91 0 m 1
 290 707 l 1
 366 707 l 1
 167 0 l 1
 91 0 l 1
304 0 m 1
 503 707 l 1
 579 707 l 1
 380 0 l 1
 304 0 l 1
75 264 m 5
 595 264 l 5
 595 204 l 5
 75 204 l 5
 75 264 l 5
75 507 m 1
 595 507 l 1
 595 447 l 1
 75 447 l 1
 75 507 l 1
EndSplineSet
Validated: 5
EndChar

StartChar: dollar
Encoding: 36 36 25
Width: 614
Flags: W
HStem: -8 60<212.969 401.266> 655 60<221.366 394.579>
VStem: 75 66<122.072 152.389> 97 72<470.689 606.144> 274 72<-136 843> 451 72<99.2598 243.137>
LayerCount: 2
Fore
SplineSet
303 715 m 1xdc
 389 715 462 692 519 593 c 1
 460 560 l 1
 423 623 382 655 304 655 c 1
 217 655 169 602 169 541 c 1xdc
 169 464 211 440 330 384 c 0
 433 336 523 282 523 178 c 1
 523 42 427 -8 303 -8 c 1
 185 -8 108 46 75 150 c 1
 141 172 l 1xec
 159 102 210 52 303 52 c 1
 399 52 451 89 451 173 c 1
 451 264 372 294 271 341 c 0
 155 395 97 447 97 543 c 1
 97 648 188 715 303 715 c 1xdc
274 843 m 1
 346 843 l 1
 346 -136 l 1
 274 -136 l 1
 274 843 l 1
EndSplineSet
Validated: 5
EndChar

StartChar: percent
Encoding: 37 37 26
Width: 702
Flags: W
HStem: -8 64<441.247 524.538> 248 64<441.512 522.484> 419 64<161.247 244.538> 675 64<161.512 242.484>
VStem: 75 71<495.949 659.853> 259 72<496.086 661.565> 355 71<68.949 232.853> 539 72<69.0856 234.565>
LayerCount: 2
Fore
SplineSet
203 675 m 24
 159 675 146 632 146 578 c 0
 146 522 160 483 203 483 c 24
 246 483 259 523 259 579 c 0
 259 632 246 675 203 675 c 24
203 739 m 24
 283 739 331 675 331 579 c 0
 331 483 283 419 203 419 c 24
 123 419 75 483 75 579 c 0
 75 675 123 739 203 739 c 24
128 -37 m 1
 482 768 l 5
 547 744 l 5
 193 -61 l 1
 128 -37 l 1
483 248 m 24
 439 248 426 205 426 151 c 0
 426 95 440 56 483 56 c 24
 526 56 539 96 539 152 c 0
 539 205 526 248 483 248 c 24
483 312 m 24
 563 312 611 248 611 152 c 0
 611 56 563 -8 483 -8 c 24
 403 -8 355 56 355 152 c 0
 355 248 403 312 483 312 c 24
EndSplineSet
Validated: 1
EndChar

StartChar: ampersand
Encoding: 38 38 27
Width: 700
Flags: W
HStem: -8 60<205.013 393.004> 0 21G<527.534 640> 655 60<248.928 394.509>
VStem: 51 72<130.946 307.453> 138 72<475.086 616.908>
LayerCount: 2
Fore
SplineSet
554.33203125 377.174804688 m 1xb8
 624 359 l 1
 605.068359375 286.428710938 l 1
 557.108398438 102.581054688 459 -8 308 -8 c 1
 159 -8 51 68 51 222 c 1
 51 326 119 401 211 437 c 1
 241 393 l 1
 188 368 123 317 123 222 c 1
 123 111 190 52 308 52 c 1
 418 52 492.741210938 141.076171875 535.400390625 304.603515625 c 1
 554.33203125 377.174804688 l 1xb8
317 715 m 1
 426 715 466 670 507 612 c 1
 451 573 l 1
 424 613 388 655 320 655 c 1
 252 655 210 607 210 561 c 1
 210 494 240 455 281 408 c 1
 640 0 l 1
 545 0 l 1x78
 228 363 l 1
 188 408 138 471 138 554 c 1
 138 636 212 715 317 715 c 1
EndSplineSet
EndChar

StartChar: quotesingle
Encoding: 39 39 28
Width: 180
Flags: HW
HStem: 498 51<97.3457 117.322> 682 118<128.37 179.976>
VStem: 200 34<709 732.786>
LayerCount: 2
Fore
SplineSet
178 707 m 1
 97 507 l 1
 45 522 l 1
 104 707 l 1
 178 707 l 1
EndSplineSet
EndChar

StartChar: parenleft
Encoding: 40 40 29
Width: 448
Flags: W
VStem: 75 72<212.233 515.175>
LayerCount: 2
Fore
SplineSet
323 800 m 5
 357 750 l 5
 232 686 147 571 147 363 c 4
 147 160 248 33 357 -19 c 5
 327 -72 l 5
 193 -13 75 153 75 363 c 4
 75 577 191 739 323 800 c 5
EndSplineSet
Validated: 1
EndChar

StartChar: parenright
Encoding: 41 41 30
Width: 448
Flags: W
VStem: 285 72<212.825 515.767>
LayerCount: 2
Fore
SplineSet
109 -72 m 1
 75 -22 l 1
 200 42 285 157 285 365 c 0
 285 568 184 695 75 747 c 1
 105 800 l 1
 239 741 357 575 357 365 c 0
 357 151 241 -11 109 -72 c 1
EndSplineSet
Validated: 1
EndChar

StartChar: asterisk
Encoding: 42 42 31
Width: 530
Flags: W
VStem: 225 64<638.213 787>
LayerCount: 2
Fore
SplineSet
126 477 m 1
 184 560 l 1
 241 618 l 1
 273 594 l 1
 237 522 l 1
 178 440 l 1
 126 477 l 1
388 477 m 1
 336 440 l 1
 277 522 l 1
 241 594 l 1
 273 618 l 1
 330 560 l 1
 388 477 l 1
94 690 m 1
 190 659 l 1
 263 623 l 1
 251 585 l 1
 171 598 l 1
 75 629 l 1
 94 690 l 1
420 690 m 1
 439 629 l 1
 343 598 l 1
 263 585 l 1
 251 623 l 1
 324 659 l 1
 420 690 l 1
225 787 m 1
 289 787 l 1
 289 686 l 1
 277 606 l 1
 237 606 l 1
 225 686 l 1
 225 787 l 1
EndSplineSet
Validated: 5
EndChar

StartChar: plus
Encoding: 43 43 32
Width: 576
Flags: W
HStem: 248 64<75 485>
VStem: 247 64<72 488>
LayerCount: 2
Fore
SplineSet
247 488 m 5
 311 488 l 5
 311 72 l 5
 247 72 l 5
 247 488 l 5
75 312 m 5
 485 312 l 5
 485 248 l 5
 75 248 l 5
 75 312 l 5
EndSplineSet
Validated: 5
EndChar

StartChar: comma
Encoding: 44 44 33
Width: 352
Flags: W
HStem: -192 51<97.3457 117.322> -8 118<128.37 179.976>
VStem: 200 34<19 42.7857>
LayerCount: 2
Fore
SplineSet
175 110 m 5
 233 110 261 64 261 11 c 5
 261 -88 169 -174 101 -192 c 5
 75 -141 l 5
 140 -121 200 -48 200 16 c 5
 181 87 l 5
 175 110 l 5
116 51 m 4
 116 83 139 110 175 110 c 4
 211 110 234 83 234 51 c 4
 234 19 211 -8 175 -8 c 4
 139 -8 116 19 116 51 c 4
EndSplineSet
Validated: 5
EndChar

StartChar: hyphen
Encoding: 45 45 34
Width: 576
Flags: W
HStem: 248 64<75 485>
LayerCount: 2
Fore
SplineSet
75 312 m 5
 485 312 l 5
 485 248 l 5
 75 248 l 5
 75 312 l 5
EndSplineSet
Validated: 1
EndChar

StartChar: period
Encoding: 46 46 35
Width: 284
Flags: W
HStem: -8 118<87.3696 180.63>
VStem: 75 118<3.89313 98.1069>
LayerCount: 2
Fore
SplineSet
75 51 m 4
 75 83 98 110 134 110 c 4
 170 110 193 83 193 51 c 4
 193 19 170 -8 134 -8 c 4
 98 -8 75 19 75 51 c 4
EndSplineSet
Validated: 1
EndChar

StartChar: slash
Encoding: 47 47 36
Width: 602
Flags: W
LayerCount: 2
Fore
SplineSet
75 -37 m 1
 445 800 l 1
 511 776 l 1
 141 -61 l 1
 75 -37 l 1
EndSplineSet
Validated: 1
EndChar

StartChar: zero
Encoding: 48 48 37
Width: 587
Flags: HW
HStem: -7 60<207.584 364.123> 277 159<240.541 330.365> 656 60<205.834 365.852>
VStem: 48 72<172.154 538.919> 224 122<293.201 419.892> 450 73<172.154 538.919>
LayerCount: 2
Fore
SplineSet
120 352 m 0
 120 112 196 53 286 53 c 0
 376 53 450 112 450 352 c 0
 450 605 376 656 286 656 c 0
 196 656 120 605 120 352 c 0
48 354 m 0
 48 653 163 716 286 716 c 0
 409 716 523 653 523 354 c 0
 523 62 409 -7 286 -7 c 0
 163 -7 48 62 48 354 c 0
224 357 m 4
 224 410 253 436 286 436 c 4
 319 436 346 410 346 357 c 4
 346 303 319 277 286 277 c 4
 253 277 224 303 224 357 c 4
EndSplineSet
EndChar

StartChar: one
Encoding: 49 49 38
Width: 430
Flags: HW
HStem: 0 21G<216 288> 515 21G<39 79.7213> 687 20G<179.521 288>
VStem: 216 72<0 637>
LayerCount: 2
Fore
SplineSet
216 0 m 1
 216 637 l 1
 53 515 l 1
 18 565 l 1
 206 707 l 1
 288 707 l 1
 288 0 l 25
 216 0 l 1
EndSplineSet
EndChar

StartChar: two
Encoding: 50 50 39
Width: 532
Flags: HW
HStem: 0 66<132 468> 655 60<156.422 333.131>
VStem: 48 84<66 125.676> 388 72<439.963 601.959>
LayerCount: 2
Fore
SplineSet
48 31 m 1
 48 101 86 214 250 328 c 4
 342 392 388 440 388 526 c 0
 388 602 337 655 254 655 c 0
 172 655 131 628 104 573 c 1
 50 605 l 1
 97 686 160 715 252 715 c 0
 385 715 460 628 460 522 c 0
 460 399 384 340 280 267 c 4
 154 179 132 110 132 66 c 1
 468 66 l 1
 468 0 l 1
 48 0 l 1
 48 31 l 1
EndSplineSet
EndChar

StartChar: three
Encoding: 51 51 40
Width: 598
Flags: HW
HStem: -8 60<171.882 369.222> 348 64<213 351.359> 655 60<173.338 356.042>
VStem: 405 72<465.511 608.399> 435 72<116.117 290.168>
LayerCount: 2
Fore
SplineSet
68 619 m 1xf0
 114 685 181 715 263 715 c 1
 404 715 477 645 477 539 c 1xf0
 477 456 436 411 379 382 c 1
 445 367 507 302 507 207 c 1
 507 75 423 -8 275 -8 c 1
 159 -8 95 30 47 102 c 1
 103 140 l 1
 135 85 189 52 275 52 c 1
 377 52 434 100 435 209 c 1xe8
 435 300 375 348 273 348 c 9
 213 348 l 25
 213 412 l 25
 276 412 l 17
 343 412 405 457 405 538 c 1
 405 622 342 655 263 655 c 1
 194 655 154 629 123 583 c 1
 68 619 l 1xf0
EndSplineSet
EndChar

StartChar: four
Encoding: 52 52 41
Width: 628
Flags: HW
HStem: 0 21G<359.944 432> 163 64<143 547> 695 20G<346.156 430.056>
VStem: 360 72<0 715>
LayerCount: 2
Fore
SplineSet
358 715 m 1
 412 694 l 1
 143 227 l 1
 69 227 l 1
 358 715 l 1
69 227 m 1
 547 227 l 1
 547 163 l 1
 69 163 l 1
 69 227 l 1
358 715 m 1
 430 715 l 1
 432 0 l 1
 360 0 l 1
 358 715 l 1
EndSplineSet
EndChar

StartChar: five
Encoding: 53 53 42
Width: 562
Flags: HW
HStem: -8 58<150.908 345.845> 408 59<166.384 352.023> 643 64<97 453>
VStem: 423 72<129.18 336>
LayerCount: 2
Fore
SplineSet
267 467 m 1
 395 467 495 390 495 235 c 0
 495 90 407 -8 253 -8 c 1
 128 -8 77 39 43 89 c 1
 95 128 l 1
 126 80 164 50 253 50 c 1
 353 50 423 102 423 231 c 0
 423 349 365 408 265 408 c 1
 200 408 165 390 139 366 c 1
 99 392 l 17
 128 438 183 467 267 467 c 1
93 707 m 1
 165 707 l 1
 139 366 l 1
 71 401 l 1
 93 707 l 1
97 707 m 1
 453 707 l 1
 453 643 l 1
 97 643 l 1
 97 707 l 1
EndSplineSet
EndChar

StartChar: six
Encoding: 54 54 43
Width: 550
Flags: HW
HStem: -8 60<180.846 349.482> 422 61<183.116 346.764> 663 52<331.012 363.308>
VStem: 48 70<121.7 350.642> 414 72<122.677 349.021>
LayerCount: 2
Fore
SplineSet
266 422 m 0
 164 422 118 350 118 249 c 0
 118 120 156 52 266 52 c 0
 377 52 414 129 414 240 c 0
 414 343 374 422 266 422 c 0
275 483 m 0
 412 483 486 393 486 240 c 0
 486 89 407 -8 266 -8 c 0
 109 -8 48 96 48 247 c 0
 48 333 49 446 152 577 c 0
 205 644 290 693 360 715 c 1
 384 663 l 1
 318 640 263 608 223 564 c 0
 180 517 154 479 141 425 c 5
 177 473 229 483 275 483 c 0
EndSplineSet
EndChar

StartChar: seven
Encoding: 55 55 44
Width: 537
Flags: HW
HStem: -8 21G<135.609 201.214> 647 60<43 462>
LayerCount: 2
Fore
SplineSet
43 707 m 1
 462 707 l 1
 462 647 l 1
 43 647 l 1
 43 707 l 1
386 647 m 1
 462 647 l 1
 193 -8 l 5
 127 15 l 5
 386 647 l 1
EndSplineSet
EndChar

StartChar: eight
Encoding: 56 56 45
Width: 556
Flags: HW
HStem: -7 60<183.625 361.072> 344 59<161 379> 655 60<187.802 352.842>
VStem: 48 72<117.129 281.469> 64 72<451.331 603.266> 404 72<451.444 602.325> 420 72<111.237 276.725>
LayerCount: 2
Fore
SplineSet
270 344 m 0xf2
 179 344 120 286 120 203 c 0
 120 92 193 53 270 53 c 0
 351 53 420 89 420 195 c 0
 420 280 363 344 270 344 c 0xf2
269 655 m 24
 193 655 136 613 136 524 c 0
 136 450 188 403 270 403 c 0
 353 403 404 450 404 525 c 0xec
 404 614 345 655 269 655 c 24
48 195 m 0xf2
 48 326 153 396 270 396 c 0
 387 396 492 326 492 195 c 0
 492 53 379 -7 270 -7 c 0
 161 -7 48 53 48 195 c 0xf2
64 525 m 0xec
 64 659 161 715 270 715 c 0
 379 715 476 659 476 525 c 0
 476 416 379 351 270 351 c 0
 161 351 64 416 64 525 c 0xec
EndSplineSet
EndChar

StartChar: nine
Encoding: 57 57 46
Width: 550
Flags: HW
HStem: -8 21G<170.034 213.5> 240 61<183.034 354.064> 655 60<184.518 353.154>
VStem: 48 72<367.425 582.819> 416 70<365.712 586.285>
LayerCount: 2
Fore
SplineSet
268 301 m 0
 370 301 416 365 416 466 c 0
 416 585 378 655 268 655 c 0
 157 655 120 576 120 475 c 0
 120 372 160 301 268 301 c 0
259 240 m 0
 122 240 48 331 48 475 c 0
 48 603 127 715 268 715 c 0
 425 715 486 596 486 468 c 0
 486 382 485 269 382 138 c 4
 329 71 248 19 179 -8 c 1
 153 50 l 1
 219 81 271 107 311 151 c 4
 354 198 384 248 397 302 c 1
 357 246 305 240 259 240 c 0
EndSplineSet
EndChar

StartChar: colon
Encoding: 58 58 47
Width: 284
Flags: W
HStem: -8 118<87.3696 180.63> 413 118<87.3696 180.63>
VStem: 75 118<3.89313 98.1069 424.893 519.107>
LayerCount: 2
Fore
SplineSet
75 472 m 4
 75 504 98 531 134 531 c 4
 170 531 193 504 193 472 c 4
 193 440 170 413 134 413 c 4
 98 413 75 440 75 472 c 4
75 51 m 4
 75 83 98 110 134 110 c 4
 170 110 193 83 193 51 c 4
 193 19 170 -8 134 -8 c 4
 98 -8 75 19 75 51 c 4
EndSplineSet
Validated: 1
EndChar

StartChar: semicolon
Encoding: 59 59 48
Width: 352
Flags: W
HStem: -192 51<97.3457 117.322> -8 118<128.37 179.976> 413 118<128.37 221.63>
VStem: 116 118<424.893 519.107> 200 34<19 42.7857>
LayerCount: 2
Fore
SplineSet
175 110 m 5xe8
 233 110 261 64 261 11 c 5
 261 -88 169 -174 101 -192 c 5
 75 -141 l 5
 140 -121 200 -48 200 16 c 5
 181 87 l 5
 175 110 l 5xe8
116 472 m 0xf0
 116 504 139 531 175 531 c 0
 211 531 234 504 234 472 c 0
 234 440 211 413 175 413 c 0
 139 413 116 440 116 472 c 0xf0
116 51 m 4
 116 83 139 110 175 110 c 4
 211 110 234 83 234 51 c 4xe8
 234 19 211 -8 175 -8 c 4
 139 -8 116 19 116 51 c 4
EndSplineSet
Validated: 5
EndChar

StartChar: less
Encoding: 60 60 49
Width: 600
Flags: W
LayerCount: 2
Fore
SplineSet
75 320 m 5
 481 492 l 5
 509 432 l 5
 75 252 l 5
 75 320 l 5
75 292 m 5
 509 112 l 5
 481 52 l 5
 75 224 l 5
 75 292 l 5
EndSplineSet
Validated: 5
EndChar

StartChar: equal
Encoding: 61 61 50
Width: 576
Flags: W
HStem: 152 64<75 485> 344 64<75 485>
LayerCount: 2
Fore
SplineSet
75 408 m 5
 485 408 l 5
 485 344 l 5
 75 344 l 5
 75 408 l 5
75 216 m 5
 485 216 l 5
 485 152 l 5
 75 152 l 5
 75 216 l 5
EndSplineSet
Validated: 1
EndChar

StartChar: greater
Encoding: 62 62 51
Width: 600
Flags: W
LayerCount: 2
Fore
SplineSet
509 320 m 5
 509 252 l 5
 75 432 l 5
 103 492 l 5
 509 320 l 5
509 292 m 5
 509 224 l 5
 103 52 l 5
 75 112 l 5
 509 292 l 5
EndSplineSet
Validated: 5
EndChar

StartChar: question
Encoding: 63 63 52
Width: 582
Flags: W
HStem: -8 118<236.963 330.224> 652 63<182.692 362.977>
VStem: 225 118<4.7644 97.2356> 419 72<432.746 599.132>
LayerCount: 2
Fore
SplineSet
271 715 m 1
 397 715 491 643 491 523 c 1
 491 385 396 321 275 308 c 1
 305 186 l 1
 243 178 l 1
 213 296 l 1
 217 364 l 1
 363 364 419 417 419 523 c 1
 419 615 353 652 271 652 c 1
 212 652 163 628 119 580 c 1
 75 625 l 1
 119 668 178 715 271 715 c 1
225 51 m 0
 225 83 247 110 283 110 c 0
 319 110 343 83 343 51 c 0
 343 19 319 -8 283 -8 c 0
 247 -8 225 19 225 51 c 0
EndSplineSet
Validated: 1
EndChar

StartChar: at
Encoding: 64 64 53
Width: 626
Flags: W
HStem: -8 60<248.802 428.428> 191 60<343.87 442.243> 493 58<347.487 450.554> 656 60<244.904 397.786>
VStem: 75 72<184.015 520.862> 253 72<270.237 470.371> 463 72<271.305 478.953>
LayerCount: 2
Fore
SplineSet
395 493 m 1
 336 493 325 437 325 360 c 5
 325 290 340 251 397 251 c 5
 441 251 463 290 463 354 c 5
 463 454 l 1
 447 481 424 493 395 493 c 1
535 373 m 5
 535 256 480 191 394 191 c 5
 303 191 253 244 253 364 c 5
 253 461 279 551 390 551 c 1
 417 551 444 542 463 518 c 1
 451 607 399 656 319 656 c 1
 219 656 147 563 147 356 c 1
 147 160 202 52 343 52 c 5
 388 52 447 72 483 119 c 1
 533 76 l 1
 483 18 419 -8 340 -8 c 5
 179 -8 75 99 75 356 c 5
 75 628 192 715 319 716 c 1
 446 715 535 627 535 475 c 1
 535 373 l 5
EndSplineSet
Validated: 1
EndChar

StartChar: A
Encoding: 65 65 54
Width: 640
Flags: W
HStem: 0 21G<40 116.761 513.918 590> 180 60<164 487> 687 20G<274.182 379.139>
VStem: 520 70<0 23.3538>
AnchorPoint: "Ring" 327 784 basechar 0
AnchorPoint: "AccentCenter" 327 880 basechar 0
LayerCount: 2
Fore
SplineSet
164 240 m 1
 487 240 l 1
 487 180 l 1
 164 180 l 1
 164 240 l 1
373 707 m 1
 590 0 l 1
 520 0 l 1
 305 707 l 1
 373 707 l 1
281 707 m 1
 349 707 l 1
 110 0 l 1
 40 0 l 1
 281 707 l 1
EndSplineSet
EndChar

StartChar: B
Encoding: 66 66 55
Width: 580
Flags: W
HStem: 0 60<152 400> 347 60<152 390.615> 647 60<152 385.234>
VStem: 80 72<60 347 407 647> 436 72<451.417 601.827> 460 72<119.14 280.814>
LayerCount: 2
Fore
SplineSet
152 647 m 1xf8
 152 407 l 1
 306 407 l 2
 387 407 436 444 436 532 c 0
 436 612 375 647 300 647 c 2
 152 647 l 1xf8
152 347 m 1
 152 60 l 1
 316 60 l 2
 397 60 460 106 460 200 c 0xf4
 460 298 391 347 300 347 c 2
 152 347 l 1
80 0 m 1
 80 707 l 1
 302 707 l 2
 423 707 508 635 508 531 c 0xf8
 508 438 448 394 400 374 c 1
 483 352 532 290 532 195 c 0
 532 58 429 0 316 0 c 2
 80 0 l 1
EndSplineSet
EndChar

StartChar: C
Encoding: 67 67 56
Width: 603
Flags: W
HStem: -8 60<238.136 434.959> 655 60<239.971 431.15>
VStem: 48 72<192.875 510.455>
AnchorPoint: "CedillaCenter" 306 -8 basechar 0
LayerCount: 2
Fore
SplineSet
346 -8 m 1
 170 -8 48 101 48 360 c 1
 48 606 185 715 336 715 c 1
 436 715 499 676 553 614 c 1
 507 567 l 1
 464 622 412 655 338 655 c 1
 209 655 120 574 120 360 c 1
 120 112 219 52 346 52 c 1
 412 52 462 78 512 150 c 1
 562 109 l 1
 524 48 442 -8 346 -8 c 1
EndSplineSet
EndChar

StartChar: D
Encoding: 68 68 57
Width: 604
Flags: HW
HStem: 1 60<124 340.624> 647 60<130 342.225>
VStem: 124 27<1 61 647 707> 484 72<218.075 494.156>
LayerCount: 2
Fore
SplineSet
130 707 m 25
 236 707 l 1
 445 707 556 561 556 361 c 0
 556 143 444 1 232 1 c 1
 124 1 l 25
 124 61 l 25
 234 61 l 1
 371 61 484 143 484 361 c 0
 484 561 370 647 236 647 c 1
 130 647 l 25
 130 707 l 25
80 707 m 1
 151 707 l 1
 151 1 l 1
 80 1 l 1
 80 707 l 1
EndSplineSet
EndChar

StartChar: E
Encoding: 69 69 58
Width: 568
Flags: W
HStem: 0 60<145 496> 342 64<144 420> 647 60<145 496>
VStem: 144 1<342 406>
AnchorPoint: "AccentCenter" 276 880 basechar 0
LayerCount: 2
Fore
SplineSet
144 406 m 1
 420 406 l 1
 420 342 l 1
 144 342 l 1
 144 406 l 1
145 60 m 1
 496 60 l 1
 496 0 l 1
 145 0 l 1
 145 60 l 1
145 707 m 1
 496 707 l 1
 496 647 l 1
 145 647 l 1
 145 707 l 1
72 707 m 1
 145 707 l 1
 145 0 l 1
 72 0 l 1
 72 707 l 1
EndSplineSet
EndChar

StartChar: F
Encoding: 70 70 59
Width: 549
Flags: W
HStem: 0 21G<72 144> 346 64<128 417> 647 60<108 493>
VStem: 72 72<0 346 410 647> 108 36<647 707> 128 16<346 410>
LayerCount: 2
Fore
SplineSet
128 410 m 1xe4
 417 410 l 1
 417 346 l 1
 128 346 l 1
 128 410 l 1xe4
108 707 m 1xe8
 493 707 l 1
 493 647 l 1
 108 647 l 1
 108 707 l 1xe8
72 707 m 1xf0
 144 707 l 1xe8
 144 0 l 1
 72 0 l 1
 72 707 l 1xf0
EndSplineSet
EndChar

StartChar: G
Encoding: 71 71 60
Width: 616
Flags: W
HStem: -8 60<238.917 424.206> 341 60<319 479> 655 60<231.106 412.874>
VStem: 48 72<198.821 512.009> 479 73<96.1067 341>
LayerCount: 2
Fore
SplineSet
552 102 m 1
 520 53 443 -8 325 -8 c 1
 200 -8 48 75 48 358 c 5
 48 612 185 715 317 715 c 1
 417 715 483 674 535 610 c 1
 481 574 l 1
 442 626 387 655 317 655 c 1
 207 655 120 564 120 358 c 5
 120 126 222 52 327 52 c 1
 386 52 446 74 479 119 c 1
 479 341 l 1
 319 341 l 25
 319 401 l 25
 552 401 l 1
 552 102 l 1
EndSplineSet
EndChar

StartChar: H
Encoding: 72 72 61
Width: 596
Flags: W
HStem: 0 21G<72 144 452 524> 346 64<108 488> 687 20G<72 144 452 524>
VStem: 72 72<0 346 410 707> 108 36<346 410> 452 72<0 346 410 707> 452 36<346 410>
LayerCount: 2
Fore
SplineSet
452 707 m 1xe4
 524 707 l 1
 524 0 l 1
 452 0 l 1
 452 707 l 1xe4
108 410 m 5xea
 488 410 l 1
 488 346 l 1
 108 346 l 5
 108 410 l 5xea
72 707 m 5xf0
 144 707 l 5
 144 0 l 5
 72 0 l 5
 72 707 l 5xf0
EndSplineSet
EndChar

StartChar: I
Encoding: 73 73 62
Width: 216
Flags: W
HStem: 0 21G<72 144> 687 20G<72 144>
VStem: 72 72<0 707>
AnchorPoint: "AccentCenter" 106 880 basechar 0
LayerCount: 2
Fore
SplineSet
72 707 m 1
 144 707 l 1
 144 0 l 1
 72 0 l 1
 72 707 l 1
EndSplineSet
EndChar

StartChar: J
Encoding: 74 74 63
Width: 424
Flags: W
HStem: -8 60<50.0846 224.941> 687 20G<280 352>
VStem: 280 72<116.178 707>
LayerCount: 2
Fore
SplineSet
352 707 m 1
 352 229 l 1
 352 75 267 -8 145 -8 c 1
 85 -8 57 0 10 31 c 1
 40 80 l 1
 77 56 101.989257812 52 148 52 c 3
 242 52 280 116 280 226 c 1
 280 707 l 1
 352 707 l 1
EndSplineSet
EndChar

StartChar: K
Encoding: 75 75 64
Width: 558
Flags: W
HStem: 0 21G<38 110 411.094 520> 687 20G<38 110 367.667 478>
VStem: 38 72<0 247 347 707> 90 20<247 347>
LayerCount: 2
Fore
SplineSet
194 397 m 1xc0
 242 366 l 1
 520 0 l 1
 426 0 l 1
 148 373 l 1
 194 397 l 1xc0
90 247 m 1xd0
 90 347 l 1
 384 707 l 1
 478 707 l 1
 90 247 l 1xd0
38 707 m 1xe0
 110 707 l 1
 110 0 l 1
 38 0 l 1
 38 707 l 1xe0
EndSplineSet
EndChar

StartChar: L
Encoding: 76 76 65
Width: 559
Flags: W
HStem: 0 60<108 487> 687 20G<72 144>
VStem: 72 72<60 707> 108 36<0 60>
LayerCount: 2
Fore
SplineSet
108 60 m 1xd0
 487 60 l 5
 487 0 l 5
 108 0 l 1
 108 60 l 1xd0
72 707 m 1xe0
 144 707 l 1xe0
 144 0 l 1xd0
 72 0 l 1
 72 707 l 1xe0
EndSplineSet
EndChar

StartChar: M
Encoding: 77 77 66
Width: 734
Flags: W
HStem: 0 21G<83 155 563 635> 687 20G<83 172.805 545.474 635>
VStem: 83 72<0 564> 147 8<564 707> 563 72<0 564> 563 8<564 707>
LayerCount: 2
Fore
SplineSet
571 707 m 17xc4
 571 564 l 1
 405 133 l 1
 337 133 l 25
 553 707 l 1
 571 707 l 17xc4
147 707 m 25xd0
 165 707 l 1
 389 133 l 25
 321 133 l 1
 147 564 l 1
 147 707 l 25xd0
563 707 m 1xc4
 635 707 l 1
 635 0 l 1
 563 0 l 1xc8
 563 707 l 1xc4
83 707 m 1xe0
 155 707 l 1xd0
 155 0 l 1
 83 0 l 1
 83 707 l 1xe0
EndSplineSet
EndChar

StartChar: N
Encoding: 78 78 67
Width: 606
Flags: W
HStem: 0 21G<72 144 443.091 534> 687 20G<72 162.903 462 534>
VStem: 72 72<0 583> 136 8<583 707> 462 72<120 707> 462 10<0 120>
LayerCount: 2
Fore
SplineSet
136 707 m 1xd4
 152 707 l 1
 472 120 l 1
 472 0 l 1
 454 0 l 1
 136 583 l 1
 136 707 l 1xd4
462 707 m 1xc8
 534 707 l 1
 534 0 l 1xc8
 462 0 l 1xc4
 462 707 l 1xc8
72 707 m 1xe0
 144 707 l 1xd0
 144 0 l 1
 72 0 l 1
 72 707 l 1xe0
EndSplineSet
EndChar

StartChar: O
Encoding: 79 79 68
Width: 670
Flags: W
HStem: -8 60<245.282 423.547> 655 60<243.621 424.184>
VStem: 48 72<207.69 505.292> 549 73<207.69 505.292>
AnchorPoint: "AccentCenter" 341 880 basechar 0
LayerCount: 2
Fore
SplineSet
120 357.5 m 4
 120 128 232 52 334 52 c 4
 436 52 549 128 549 357.5 c 4
 549 587 434 655 334 655 c 4
 232 655 120 587 120 357.5 c 4
48 356.5 m 4
 48 635 211 715 334 715 c 4
 457 715 622 635 622 356.5 c 4
 622 78 467 -8 334 -8 c 4
 204 -8 48 78 48 356.5 c 4
EndSplineSet
EndChar

StartChar: P
Encoding: 80 80 69
Width: 572
Flags: W
HStem: 0 21G<72 144> 273 60<136 373.014> 647 60<132 378.861>
VStem: 72 72<0 273 333 647> 136 8<273 333 647 707> 452 72<413.131 573.652>
LayerCount: 2
Fore
SplineSet
132 707 m 1xec
 132 707 234 707 306 707 c 0
 434 707 524 611 524 496 c 0
 524 372 428 273 288 273 c 9
 136 273 l 1
 136 333 l 1
 288 333 l 17
 389 333 452 408 452 496 c 0
 452 580 388 647 306 647 c 9
 132 647 l 1
 132 707 l 1xec
72 707 m 1xf4
 144 707 l 1xec
 144 0 l 1
 72 0 l 1
 72 707 l 1xf4
EndSplineSet
EndChar

StartChar: Q
Encoding: 81 81 70
Width: 670
Flags: W
HStem: -180 59<411.051 550.528> -8 8<299 361> 655 60<243.621 424.184>
VStem: 48 72<207.69 505.292> 549 73<207.69 505.292>
AnchorPoint: "AccentCenter" 322 880 basechar 0
LayerCount: 2
Fore
SplineSet
120 357.5 m 0
 120 128 232 52 334 52 c 0
 436 52 549 128 549 357.5 c 0
 549 587 434 655 334 655 c 0
 232 655 120 587 120 357.5 c 0
48 356.5 m 0
 48 635 211 715 334 715 c 0
 457 715 622 635 622 356.5 c 0
 622 78 467 -8 334 -8 c 0
 204 -8 48 78 48 356.5 c 0
361 0 m 25
 361 0 369 -121 477 -121 c 0
 518 -121 547 -102 547 -102 c 25
 568 -148 l 1
 568 -148 535 -180 469 -180 c 0
 357 -180 299 -78 299 0 c 9
 361 0 l 25
EndSplineSet
EndChar

StartChar: R
Encoding: 82 82 71
Width: 606
Flags: W
HStem: 0 21G<75 147 437.684 529> 293 60<137 348.67> 647 60<133 355.001>
VStem: 75 72<0 293 353 647> 137 10<293 353 647 707> 423 72<423.605 580.003>
LayerCount: 2
Fore
SplineSet
277 304 m 5xe4
 325 304 l 1
 389 256 l 1
 529 0 l 1
 449 0 l 5
 277 304 l 5xe4
133 707 m 1
 133 707 205 707 277 707 c 0
 405 707 495 619 495 504 c 0
 495 380 399 293 259 293 c 9
 137 293 l 1
 137 353 l 1xec
 259 353 l 17
 360 353 423 416 423 504 c 0
 423 588 359 647 277 647 c 9
 133 647 l 1
 133 707 l 1
75 707 m 1xf4
 147 707 l 1xec
 147 0 l 1
 75 0 l 1
 75 707 l 1xf4
EndSplineSet
EndChar

StartChar: S
Encoding: 83 83 72
Width: 580
Flags: W
HStem: -8 60<183.39 389.868> 655 60<204.366 381.405>
VStem: 80 72<470.627 606.144> 434 72<93.7202 240.089>
LayerCount: 2
Fore
SplineSet
286 715 m 1
 365 715 431 698 501 620 c 1
 451 576 l 1
 403 629 358 655 287 655 c 1
 200 655 152 602 152 541 c 1
 152 464 193.791000812 439.55370836 313 384 c 0
 425 331.805825243 506 270 506 172 c 1
 506 44 418 -8 294 -8 c 1
 176 -8 116 26 63 100 c 1
 114 142 l 1
 153 79 201 52 294 52 c 1
 390 52 434 89 434 173 c 1
 434 260 355 294 254 341 c 0
 138 395 80 447 80 543 c 1
 80 648 171 715 286 715 c 1
EndSplineSet
EndChar

StartChar: T
Encoding: 84 84 73
Width: 630
Flags: W
HStem: 0 21G<271 343.056> 649 60<65 549>
VStem: 271 72<0 709>
LayerCount: 2
Fore
SplineSet
65 709 m 1
 549 709 l 1
 549 649 l 1
 65 649 l 1
 65 709 l 1
273 709 m 1
 345 709 l 1
 343 0 l 1
 271 0 l 1
 273 709 l 1
EndSplineSet
EndChar

StartChar: U
Encoding: 85 85 74
Width: 614
Flags: W
HStem: -8 60<223.704 388.949> 687 20G<72 144 470 542>
VStem: 72 72<142.447 707> 470 72<141.55 707>
AnchorPoint: "AccentCenter" 307 880 basechar 0
LayerCount: 2
Fore
SplineSet
72 707 m 5
 144 707 l 5
 144 251 l 5
 144 113 215 52 307 52 c 0
 393 52 470 113 470 251 c 1
 470 707 l 1
 542 707 l 1
 542 249 l 1
 542 75 429 -8 303 -8 c 0
 181 -8 72 75 72 251 c 5
 72 707 l 5
EndSplineSet
EndChar

StartChar: V
Encoding: 86 86 75
Width: 675
Flags: W
HStem: 0 21G<276.437 381.591> 687 20G<51 136.252 522.72 608>
LayerCount: 2
Fore
SplineSet
307 0 m 1
 529 707 l 1
 608 707 l 1
 375 0 l 1
 307 0 l 1
51 707 m 5
 130 707 l 5
 351 0 l 1
 283 0 l 1
 51 707 l 5
EndSplineSet
EndChar

StartChar: W
Encoding: 87 87 76
Width: 744
Flags: W
HStem: 0 21G<150.011 243.344 504.784 593.989> 687 20G<13 88.6775 655.322 731>
VStem: 13 72<671.058 707> 659 72<671.058 707>
LayerCount: 2
Fore
SplineSet
572 0 m 1
 510 0 l 1
 347 625 l 1
 413 625 l 1
 572 0 l 1
731 707 m 1
 590 0 l 1
 529 0 l 1
 659 707 l 1
 731 707 l 1
172 0 m 1
 339 625 l 1
 405 625 l 1
 238 0 l 1
 172 0 l 1
13 707 m 1
 85 707 l 1
 215 0 l 1
 154 0 l 1
 13 707 l 1
EndSplineSet
EndChar

StartChar: X
Encoding: 88 88 77
Width: 646
Flags: W
HStem: 0 21G<63 161.825 468.175 567> 687 20G<63 161.861 468.139 567>
LayerCount: 2
Fore
SplineSet
63 707 m 1
 151 707 l 1
 315 405 l 1
 479 707 l 5
 567 707 l 5
 359 354 l 1
 567 0 l 5
 479 0 l 5
 315 303 l 1
 151 0 l 1
 63 0 l 1
 271 354 l 1
 63 707 l 1
EndSplineSet
EndChar

StartChar: Y
Encoding: 89 89 78
Width: 652
Flags: W
HStem: 0 21G<282 354> 278 12<282 349> 687 20G<51 146.163 489.837 585>
VStem: 282 72<0 290>
AnchorPoint: "AccentCenter" 318 880 basechar 0
LayerCount: 2
Fore
SplineSet
282 290 m 5
 354 290 l 5
 354 0 l 1
 282 0 l 1
 282 290 l 5
282 278 m 5
 500 707 l 1
 585 707 l 1
 349 278 l 5
 282 278 l 5
51 707 m 1
 136 707 l 1
 354 278 l 5
 287 278 l 5
 51 707 l 1
EndSplineSet
EndChar

StartChar: Z
Encoding: 90 90 79
Width: 608
Flags: W
HStem: 0 60<152 536> 647 60<72 536>
LayerCount: 2
Fore
SplineSet
456 647 m 1
 536 647 l 1
 152 60 l 5
 72 60 l 1
 456 647 l 1
72 60 m 1
 536 60 l 1
 536 0 l 1
 72 0 l 1
 72 60 l 1
72 707 m 1
 536 707 l 1
 536 647 l 1
 72 647 l 1
 72 707 l 1
EndSplineSet
EndChar

StartChar: bracketleft
Encoding: 91 91 80
Width: 440
Flags: W
HStem: -64 60<107 349> 739 61<107 349>
VStem: 107 40<-64 -4 739 800>
LayerCount: 2
Fore
SplineSet
107 739 m 1
 107 800 l 1
 349 800 l 1
 349 739 l 1
 107 739 l 1
107 -64 m 1
 107 -4 l 1
 349 -4 l 1
 349 -64 l 1
 107 -64 l 1
75 800 m 1
 147 800 l 1
 147 -64 l 1
 75 -64 l 1
 75 800 l 1
EndSplineSet
EndChar

StartChar: backslash
Encoding: 92 92 81
Width: 602
Flags: HW
LayerCount: 2
Fore
SplineSet
75 776 m 5
 141 800 l 5
 511 -37 l 5
 445 -61 l 5
 75 776 l 5
EndSplineSet
EndChar

StartChar: bracketright
Encoding: 93 93 82
Width: 440
Flags: W
HStem: -64 60<75 317> 739 61<75 317>
VStem: 277 40<-64 -4 739 800>
LayerCount: 2
Fore
SplineSet
317 739 m 1
 75 739 l 1
 75 800 l 1
 317 800 l 1
 317 739 l 1
317 -64 m 1
 75 -64 l 1
 75 -4 l 1
 317 -4 l 1
 317 -64 l 1
349 800 m 1
 349 -64 l 1
 277 -64 l 1
 277 800 l 1
 349 800 l 1
EndSplineSet
EndChar

StartChar: asciicircum
Encoding: 94 94 83
Width: 486
Flags: W
HStem: 651 181
VStem: 75 320
LayerCount: 2
Fore
SplineSet
75 699 m 25
 203 832 l 1
 267 832 l 25
 395 699 l 25
 355 651 l 25
 235 768 l 25
 115 651 l 25
 75 699 l 25
EndSplineSet
EndChar

StartChar: underscore
Encoding: 95 95 84
Width: 558
Flags: W
HStem: -64 64<75 467>
LayerCount: 2
Fore
SplineSet
75 0 m 1
 467 0 l 5
 467 -64 l 5
 75 -64 l 1
 75 0 l 1
EndSplineSet
EndChar

StartChar: grave
Encoding: 96 96 85
Width: 407
Flags: W
HStem: 747 181
VStem: 75 241
LayerCount: 2
Fore
SplineSet
283 747 m 1
 75 868 l 1
 117 928 l 1
 316 795 l 1
 283 747 l 1
EndSplineSet
Validated: 1
EndChar

StartChar: t
Encoding: 116 116 86
Width: 376
Flags: W
HStem: 0 56<215.573 344.898> 451 56<17 330>
VStem: 107 72<92.6223 620>
LayerCount: 2
Fore
SplineSet
276 0 m 1
 160 0 107 77 107 178 c 1
 107 620 l 1
 179 670 l 1
 179 178 l 1
 179 97 217 56 276 56 c 1
 302 56 325.099609375 58.033203125 343 64 c 1
 352.418945312 9.26171875 l 1
 331.602539062 3.9990234375 317 0 276 0 c 1
17 451 m 1
 17 507 l 1
 330 507 l 1
 330 451 l 1
 17 451 l 1
EndSplineSet
EndChar

StartChar: u
Encoding: 117 117 87
Width: 568
Flags: W
HStem: -8 60<187.761 345.414> 0 21G<420 480> 487 20G<72 144 408 480>
VStem: 72 72<100.548 507> 408 72<44.16 80 116 507> 424 56<0 35.84>
AnchorPoint: "AccentCenter" 275 670 basechar 0
LayerCount: 2
Fore
SplineSet
480 0 m 1x74
 424 0 l 1x74
 408 80 l 1
 408 507 l 1
 480 507 l 1x78
 480 0 l 1x74
426 116 m 1
 398 45 347 -8 257 -8 c 0
 130 -8 72 83 72 189 c 1
 72 507 l 1
 144 507 l 1
 144 191 l 2
 144 103 182 52 263 52 c 0
 359 52 408 121 408 203 c 1xb8
 426 116 l 1
EndSplineSet
EndChar

StartChar: v
Encoding: 118 118 88
Width: 584
Flags: W
HStem: 0 21G<243.953 328.521> 487 20G<48 133.495 450.032 536>
LayerCount: 2
Fore
SplineSet
256 0 m 1
 458 507 l 1
 536 507 l 1
 320 0 l 1
 256 0 l 1
48 507 m 1
 126 507 l 1
 316 0 l 1
 252 0 l 1
 48 507 l 1
EndSplineSet
EndChar

StartChar: w
Encoding: 119 119 89
Width: 692
Flags: W
HStem: 0 21G<145.03 236.202 438.157 529.049> 487 20G<24 100.497 575.345 652>
VStem: 24 72<478.157 507> 580 72<478.608 507>
LayerCount: 2
Fore
SplineSet
508 0 m 5
 444 0 l 5
 314 445 l 5
 378 445 l 5
 508 0 l 5
652 507 m 5
 524 0 l 5
 462 0 l 5
 580 507 l 5
 652 507 l 5
166 0 m 5
 304 445 l 5
 368 445 l 5
 230 0 l 5
 166 0 l 5
24 507 m 5
 96 507 l 5
 210 0 l 5
 150 0 l 5
 24 507 l 5
EndSplineSet
EndChar

StartChar: y
Encoding: 121 121 90
Width: 528
Flags: W
HStem: -202 53<71.1312 95.2344> 487 20G<24 111.787 399.067 488>
AnchorPoint: "AccentCenter" 266 670 basechar 0
LayerCount: 2
Fore
SplineSet
24 507 m 1
 104 507 l 1
 250 132 l 1
 264 83 l 1
 230 22 l 1
 24 507 l 1
40 -149 m 0
 118 -125 179 -88 218 -3 c 1
 236 40 l 1
 262 83 l 1
 276 132 l 1
 406 507 l 1
 488 507 l 1
 294 14 l 1
 236 -124 153 -178 76 -202 c 0
 40 -149 l 0
EndSplineSet
EndChar

StartChar: braceleft
Encoding: 123 123 91
Width: 540
Flags: W
HStem: -68 60<291.347 465> 739 60<299.312 465>
VStem: 166 72<42.9263 201.678 527.322 682.234>
LayerCount: 2
Fore
SplineSet
387 -8 m 1
 465 -8 l 1
 465 -68 l 1
 387 -68 l 1
 387 -8 l 1
387 799 m 1
 465 799 l 1
 465 739 l 1
 387 739 l 1
 387 799 l 1
75 395 m 1
 213 482 l 1
 195 510 166 566 166 605 c 0
 166 723 261 799 387 799 c 1
 387 739 l 1
 298 739 238 694 238 605 c 0
 238 564 258 523 279 494 c 1
 268 445 l 1
 134 364 l 1
 268 284 l 1
 279 235 l 1
 258 206 238 165 238 124 c 0
 238 25 298 -8 387 -8 c 1
 387 -68 l 1
 254 -68 166 -4 166 124 c 0
 166 163 195 219 213 247 c 1
 75 334 l 1
 75 395 l 1
EndSplineSet
Validated: 5
EndChar

StartChar: bar
Encoding: 124 124 92
Width: 222
Flags: W
VStem: 75 72<-64 800>
LayerCount: 2
Fore
SplineSet
75 800 m 1
 147 800 l 1
 147 -64 l 1
 75 -64 l 1
 75 800 l 1
EndSplineSet
Validated: 1
EndChar

StartChar: braceright
Encoding: 125 125 93
Width: 540
Flags: W
VStem: 302 72<42.9263 201.678 527.322 682.234>
LayerCount: 2
Fore
SplineSet
153 -8 m 1
 75 -8 l 1
 75 -68 l 1
 153 -68 l 1
 153 -8 l 1
153 799 m 5
 75 799 l 5
 75 739 l 5
 153 739 l 5
 153 799 l 5
465 395 m 1
 327 482 l 1
 345 510 374 566 374 605 c 0
 374 723 279 799 153 799 c 5
 153 739 l 5
 242 739 302 694 302 605 c 0
 302 564 282 523 261 494 c 1
 272 445 l 1
 406 364 l 1
 272 284 l 1
 261 235 l 1
 282 206 302 165 302 124 c 0
 302 25 242 -8 153 -8 c 1
 153 -68 l 1
 286 -68 374 -4 374 124 c 0
 374 163 345 219 327 247 c 1
 465 334 l 1
 465 395 l 1
EndSplineSet
Validated: 5
EndChar

StartChar: asciitilde
Encoding: 126 126 94
Width: 646
Flags: W
HStem: 220 64<369.567 473.601> 313 64<174.585 286.989>
LayerCount: 2
Fore
SplineSet
75 259 m 5
 75 259 114 377 243 377 c 4
 316 377 360 284 429 284 c 4
 486 284 513 375 513 375 c 5
 571 335 l 29
 571 335 525 220 421 220 c 4
 340 220 294 313 231 313 c 4
 158 313 125 220 125 220 c 5
 75 259 l 5
EndSplineSet
Validated: 1
EndChar

StartChar: gravecomb
Encoding: 768 768 96
Width: 0
Flags: W
HStem: 747 181
VStem: -120 241
AnchorPoint: "AccentCenter" 4 840 mark 0
LayerCount: 2
Fore
SplineSet
88 747 m 1
 -120 868 l 1
 -78 928 l 1
 121 795 l 1
 88 747 l 1
EndSplineSet
Validated: 1
EndChar

StartChar: acutecomb
Encoding: 769 769 97
Width: 0
Flags: W
HStem: 747 181
VStem: -120 241
AnchorPoint: "AccentCenter" 6 840 mark 0
LayerCount: 2
Fore
SplineSet
-88 747 m 5
 -120 795 l 5
 78 928 l 5
 121 868 l 5
 -88 747 l 5
EndSplineSet
Validated: 1
EndChar

StartChar: uni0302
Encoding: 770 770 98
Width: 0
Flags: W
HStem: 747 181
VStem: -160 320
AnchorPoint: "AccentCenter" 0 840 mark 0
LayerCount: 2
Fore
SplineSet
-160 795 m 25
 -32 928 l 1
 32 928 l 25
 160 795 l 25
 120 747 l 25
 0 864 l 25
 -120 747 l 25
 -160 795 l 25
EndSplineSet
Validated: 1
EndChar

StartChar: dotlessi
Encoding: 305 305 133
Width: 230
Flags: W
HStem: 0 21G<79 151> 487 20G<79 151>
VStem: 79 72<0 507>
AnchorPoint: "AccentCenter" 116 670 basechar 0
LayerCount: 2
Fore
SplineSet
79 0 m 1
 79 507 l 1
 151 507 l 1
 151 0 l 1
 79 0 l 1
EndSplineSet
Validated: 1
EndChar

StartChar: uni0308
Encoding: 776 776 134
Width: 0
Flags: W
HStem: 786 102<-143.544 -60.4557 60.4557 143.544>
VStem: -153 102<795.456 878.544> 51 102<795.456 878.544>
AnchorPoint: "AccentCenter" 0 840 mark 0
LayerCount: 2
Fore
SplineSet
51 837 m 0
 51 865 74 888 102 888 c 0
 130 888 153 865 153 837 c 0
 153 809 130 786 102 786 c 0
 74 786 51 809 51 837 c 0
-153 837 m 0
 -153 865 -130 888 -102 888 c 0
 -74 888 -51 865 -51 837 c 0
 -51 809 -74 786 -102 786 c 0
 -130 786 -153 809 -153 837 c 0
EndSplineSet
Validated: 1
EndChar

